<svg xmlns="http://www.w3.org/2000/svg" xmlns:xlink="http://www.w3.org/1999/xlink" width="1920" zoomAndPan="magnify" viewBox="0 0 1440 809.999993" height="1080" preserveAspectRatio="xMidYMid meet" version="1.0"><defs><g/></defs><g fill="#df42d0" fill-opacity="1"><g transform="translate(14.313803, 499.914933)"><g><path d="M 112.359375 0 L 34.921875 0 C 32.140625 0 29.734375 -1.007812 27.703125 -3.03125 C 25.679688 -5.0625 24.671875 -7.46875 24.671875 -10.25 L 24.671875 -255.46875 C 24.671875 -258.25 25.679688 -260.648438 27.703125 -262.671875 C 29.734375 -264.703125 32.140625 -265.71875 34.921875 -265.71875 L 112.359375 -265.71875 C 115.140625 -265.71875 117.539062 -264.703125 119.5625 -262.671875 C 121.59375 -260.648438 122.609375 -258.25 122.609375 -255.46875 L 122.609375 -10.25 C 122.609375 -7.46875 121.59375 -5.0625 119.5625 -3.03125 C 117.539062 -1.007812 115.140625 0 112.359375 0 Z M 112.359375 0 "/></g></g></g><g fill="#ffffff" fill-opacity="1"><g transform="translate(161.606764, 499.914933)"><g><path d="M 34.921875 -265.71875 L 226.234375 -265.71875 C 229.015625 -265.71875 231.414062 -264.703125 233.4375 -262.671875 C 235.46875 -260.648438 236.484375 -258.25 236.484375 -255.46875 L 236.484375 -197.765625 C 236.484375 -194.984375 235.46875 -192.578125 233.4375 -190.546875 C 231.414062 -188.523438 229.015625 -187.515625 226.234375 -187.515625 L 117.671875 -187.515625 L 117.671875 -159.421875 L 218.640625 -159.421875 C 221.429688 -159.421875 223.835938 -158.410156 225.859375 -156.390625 C 227.878906 -154.367188 228.890625 -151.96875 228.890625 -149.1875 L 228.890625 -91.859375 C 228.890625 -89.078125 227.878906 -86.671875 225.859375 -84.640625 C 223.835938 -82.617188 221.429688 -81.609375 218.640625 -81.609375 L 117.671875 -81.609375 L 117.671875 -10.25 C 117.671875 -7.46875 116.65625 -5.0625 114.625 -3.03125 C 112.601562 -1.007812 110.203125 0 107.421875 0 L 34.921875 0 C 32.140625 0 29.734375 -1.007812 27.703125 -3.03125 C 25.679688 -5.0625 24.671875 -7.46875 24.671875 -10.25 L 24.671875 -255.46875 C 24.671875 -258.25 25.679688 -260.648438 27.703125 -262.671875 C 29.734375 -264.703125 32.140625 -265.71875 34.921875 -265.71875 Z M 34.921875 -265.71875 "/></g></g></g><g fill="#ffffff" fill-opacity="1"><g transform="translate(413.279474, 499.914933)"><g><path d="M 269.125 -12.53125 C 269.882812 -11.007812 270.265625 -9.363281 270.265625 -7.59375 C 270.265625 -5.820312 269.441406 -4.113281 267.796875 -2.46875 C 266.160156 -0.820312 264.203125 0 261.921875 0 L 184.109375 0 C 176.253906 0 170.8125 -3.414062 167.78125 -10.25 L 135.140625 -82.75 L 119.578125 -82.75 L 119.578125 -10.25 C 119.578125 -7.46875 118.5625 -5.0625 116.53125 -3.03125 C 114.507812 -1.007812 112.109375 0 109.328125 0 L 34.921875 0 C 32.140625 0 29.734375 -1.007812 27.703125 -3.03125 C 25.679688 -5.0625 24.671875 -7.46875 24.671875 -10.25 L 24.671875 -255.46875 C 24.671875 -258.25 25.679688 -260.648438 27.703125 -262.671875 C 29.734375 -264.703125 32.140625 -265.71875 34.921875 -265.71875 L 147.28125 -265.71875 C 183.71875 -265.71875 212.1875 -257.554688 232.6875 -241.234375 C 253.1875 -224.910156 263.4375 -201.5 263.4375 -171 C 263.4375 -140.507812 249.769531 -116.535156 222.4375 -99.078125 Z M 119.578125 -195.109375 L 119.578125 -154.875 L 147.28125 -154.875 C 152.851562 -154.875 157.15625 -156.707031 160.1875 -160.375 C 163.226562 -164.039062 164.75 -168.65625 164.75 -174.21875 C 164.75 -179.789062 163.289062 -184.664062 160.375 -188.84375 C 157.46875 -193.019531 153.101562 -195.109375 147.28125 -195.109375 Z M 119.578125 -195.109375 "/></g></g></g><g fill="#ffffff" fill-opacity="1"><g transform="translate(694.940325, 499.914933)"><g><path d="M 107.796875 -265.71875 L 190.171875 -265.71875 C 199.285156 -265.71875 204.984375 -261.539062 207.265625 -253.1875 L 291.90625 -11.015625 C 292.15625 -10.253906 292.28125 -9.050781 292.28125 -7.40625 C 292.28125 -5.757812 291.457031 -4.113281 289.8125 -2.46875 C 288.175781 -0.820312 286.21875 0 283.9375 0 L 213.71875 0 C 206.125 0 201.1875 -3.160156 198.90625 -9.484375 L 189.796875 -34.546875 L 108.1875 -34.546875 L 99.078125 -9.484375 C 96.796875 -3.160156 91.859375 0 84.265625 0 L 14.046875 0 C 11.765625 0 9.800781 -0.820312 8.15625 -2.46875 C 6.507812 -4.113281 5.6875 -5.757812 5.6875 -7.40625 C 5.6875 -9.050781 5.816406 -10.253906 6.078125 -11.015625 L 90.71875 -253.1875 C 93 -261.539062 98.691406 -265.71875 107.796875 -265.71875 Z M 127.546875 -108.5625 L 170.4375 -108.5625 L 148.796875 -179.171875 Z M 127.546875 -108.5625 "/></g></g></g><g fill="#ffffff" fill-opacity="1"><g transform="translate(992.92386, 499.914933)"><g><path d="M 191.3125 -265.71875 L 265.71875 -265.71875 C 268.5 -265.71875 270.898438 -264.703125 272.921875 -262.671875 C 274.953125 -260.648438 275.96875 -258.25 275.96875 -255.46875 L 275.96875 -10.25 C 275.96875 -7.46875 274.953125 -5.0625 272.921875 -3.03125 C 270.898438 -1.007812 268.5 0 265.71875 0 L 191.3125 0 C 188.53125 0 186.125 -1.007812 184.09375 -3.03125 C 182.070312 -5.0625 181.0625 -7.46875 181.0625 -10.25 L 181.0625 -92.234375 L 119.578125 -92.234375 L 119.578125 -10.25 C 119.578125 -7.46875 118.5625 -5.0625 116.53125 -3.03125 C 114.507812 -1.007812 112.109375 0 109.328125 0 L 34.921875 0 C 32.140625 0 29.734375 -0.945312 27.703125 -2.84375 C 25.679688 -4.738281 24.671875 -7.207031 24.671875 -10.25 L 24.671875 -255.46875 C 24.671875 -258.25 25.679688 -260.648438 27.703125 -262.671875 C 29.734375 -264.703125 32.140625 -265.71875 34.921875 -265.71875 L 109.328125 -265.71875 C 112.109375 -265.71875 114.507812 -264.703125 116.53125 -262.671875 C 118.5625 -260.648438 119.578125 -258.25 119.578125 -255.46875 L 119.578125 -175.75 L 181.0625 -175.75 L 181.0625 -255.46875 C 181.0625 -258.25 182.070312 -260.648438 184.09375 -262.671875 C 186.125 -264.703125 188.53125 -265.71875 191.3125 -265.71875 Z M 191.3125 -265.71875 "/></g></g></g><g fill="#ffffff" fill-opacity="1"><g transform="translate(1293.564532, 499.914933)"><g><path d="M 33.03125 -86.546875 L 99.078125 -86.546875 C 101.859375 -86.546875 104.257812 -85.53125 106.28125 -83.5 C 108.3125 -81.476562 109.328125 -79.078125 109.328125 -76.296875 L 109.328125 -10.25 C 109.328125 -7.46875 108.3125 -5.0625 106.28125 -3.03125 C 104.257812 -1.007812 101.859375 0 99.078125 0 L 33.03125 0 C 30.238281 0 27.832031 -1.007812 25.8125 -3.03125 C 23.789062 -5.0625 22.78125 -7.46875 22.78125 -10.25 L 22.78125 -76.296875 C 22.78125 -79.078125 23.789062 -81.476562 25.8125 -83.5 C 27.832031 -85.53125 30.238281 -86.546875 33.03125 -86.546875 Z M 33.03125 -86.546875 "/></g></g></g></svg>